<!DOCTYPE svg PUBLIC "-//W3C//DTD SVG 1.1//EN"
 "http://www.w3.org/Graphics/SVG/1.1/DTD/svg11.dtd">
<svg version="1.1"
 width="600px" height="570px"
 viewBox="0 0 600 570"
 xmlns="http://www.w3.org/2000/svg" shape-rendering="crispEdges"
 stroke-width="1" text-rendering="geometricPrecision">
<polygon fill="white" points="61,7 87,7 87,16 61,16"/>
<text x="75" y="16" textLength="25" font-family="Helvetica" font-size="12" fill="black" text-anchor="middle">

Host
</text>
<polygon fill="white" points="201,7 247,7 247,16 201,16"/>
<text x="225" y="16" textLength="44" font-family="Helvetica" font-size="12" fill="black" text-anchor="middle">

Network
</text>
<polygon fill="white" points="348,7 400,7 400,16 348,16"/>
<text x="375" y="16" textLength="50" font-family="Helvetica" font-size="12" fill="black" text-anchor="middle">

Deframer
</text>
<polygon fill="white" points="500,7 548,7 548,16 500,16"/>
<text x="525" y="16" textLength="47" font-family="Helvetica" font-size="12" fill="black" text-anchor="middle">

Samples
</text>
<line x1="75" y1="22" x2="75" y2="47" stroke="black"/>
<line x1="225" y1="22" x2="225" y2="47" stroke="black"/>
<line x1="375" y1="22" x2="375" y2="47" stroke="black"/>
<line x1="525" y1="22" x2="525" y2="47" stroke="black"/>
<line x1="75" y1="47" x2="75" y2="83" stroke="black"/>
<line x1="225" y1="47" x2="225" y2="83" stroke="black"/>
<line x1="375" y1="47" x2="375" y2="83" stroke="black"/>
<line x1="525" y1="47" x2="525" y2="83" stroke="black"/>
<line x1="75" y1="58" x2="225" y2="66" stroke="black"/>
<polygon fill="black" points="225,66 215,72 215,60"/>
<polygon fill="white" points="99,52 199,52 199,61 99,61"/>
<text x="100" y="61" textLength="98" font-family="Helvetica" font-size="12" fill="black">
INT16_COMPLEX
</text>
<polygon fill="white" points="118,63 181,63 181,72 118,72"/>
<text x="119" y="72" textLength="61" font-family="Helvetica" font-size="12" fill="black">
 SEQ_ID=0
</text>
<line x1="75" y1="83" x2="75" y2="119" stroke="black"/>
<line x1="225" y1="83" x2="225" y2="119" stroke="black"/>
<line x1="375" y1="83" x2="375" y2="119" stroke="black"/>
<line x1="525" y1="83" x2="525" y2="119" stroke="black"/>
<line x1="225" y1="94" x2="375" y2="102" stroke="black"/>
<polygon fill="black" points="375,102 365,108 365,96"/>
<polygon fill="white" points="249,88 349,88 349,97 249,97"/>
<text x="250" y="97" textLength="98" font-family="Helvetica" font-size="12" fill="black">
INT16_COMPLEX
</text>
<polygon fill="white" points="268,99 331,99 331,108 268,108"/>
<text x="269" y="108" textLength="61" font-family="Helvetica" font-size="12" fill="black">
 SEQ_ID=0
</text>
<line x1="75" y1="119" x2="75" y2="155" stroke="black"/>
<line x1="225" y1="119" x2="225" y2="155" stroke="black"/>
<line x1="375" y1="119" x2="375" y2="155" stroke="black"/>
<line x1="525" y1="119" x2="525" y2="155" stroke="black"/>
<line x1="375" y1="130" x2="525" y2="138" stroke="black"/>
<polygon fill="black" points="525,138 515,144 515,132"/>
<polygon fill="white" points="414,124 485,124 485,133 414,133"/>
<text x="415" y="133" textLength="69" font-family="Helvetica" font-size="12" fill="black">
Sample Data
</text>
<line x1="75" y1="155" x2="75" y2="191" stroke="black"/>
<line x1="225" y1="155" x2="225" y2="191" stroke="black"/>
<line x1="375" y1="155" x2="375" y2="191" stroke="black"/>
<line x1="525" y1="155" x2="525" y2="191" stroke="black"/>
<line x1="75" y1="166" x2="225" y2="174" stroke="black"/>
<polygon fill="black" points="225,174 215,180 215,168"/>
<polygon fill="white" points="83,160 215,160 215,169 83,169"/>
<text x="84" y="169" textLength="130" font-family="Helvetica" font-size="12" fill="black">
INT16_COMPLEX_EOB
</text>
<polygon fill="white" points="118,171 181,171 181,180 118,180"/>
<text x="119" y="180" textLength="61" font-family="Helvetica" font-size="12" fill="black">
 SEQ_ID=1
</text>
<line x1="75" y1="191" x2="75" y2="227" stroke="black"/>
<line x1="225" y1="191" x2="225" y2="227" stroke="black"/>
<line x1="375" y1="191" x2="375" y2="227" stroke="black"/>
<line x1="525" y1="191" x2="525" y2="227" stroke="black"/>
<line x1="225" y1="202" x2="375" y2="210" stroke="black"/>
<polygon fill="black" points="375,210 365,216 365,204"/>
<polygon fill="white" points="233,196 365,196 365,205 233,205"/>
<text x="234" y="205" textLength="130" font-family="Helvetica" font-size="12" fill="black">
INT16_COMPLEX_EOB
</text>
<polygon fill="white" points="268,207 331,207 331,216 268,216"/>
<text x="269" y="216" textLength="61" font-family="Helvetica" font-size="12" fill="black">
 SEQ_ID=1
</text>
<line x1="75" y1="227" x2="75" y2="263" stroke="black"/>
<line x1="225" y1="227" x2="225" y2="263" stroke="black"/>
<line x1="375" y1="227" x2="375" y2="263" stroke="black"/>
<line x1="525" y1="227" x2="525" y2="263" stroke="black"/>
<line x1="375" y1="238" x2="525" y2="246" stroke="black"/>
<polygon fill="black" points="525,246 515,252 515,240"/>
<polygon fill="white" points="414,232 485,232 485,241 414,241"/>
<text x="415" y="241" textLength="69" font-family="Helvetica" font-size="12" fill="black">
Sample Data
</text>
<line x1="75" y1="263" x2="75" y2="299" stroke="black"/>
<line x1="225" y1="263" x2="225" y2="299" stroke="black"/>
<line x1="375" y1="263" x2="375" y2="299" stroke="black"/>
<line x1="525" y1="263" x2="525" y2="299" stroke="black"/>
<line x1="375" y1="274" x2="225" y2="282" stroke="black"/>
<polygon fill="black" points="225,282 235,288 235,276"/>
<polygon fill="white" points="275,268 324,268 324,277 275,277"/>
<text x="276" y="277" textLength="47" font-family="Helvetica" font-size="12" fill="black">
STATUS
</text>
<polygon fill="white" points="197,279 402,279 402,288 197,288"/>
<text x="198" y="288" textLength="203" font-family="Helvetica" font-size="12" fill="black">
 SEQ_ID=0, ACK_EOB for SEQ_ID=1
</text>
<line x1="75" y1="299" x2="75" y2="335" stroke="black"/>
<line x1="225" y1="299" x2="225" y2="335" stroke="black"/>
<line x1="375" y1="299" x2="375" y2="335" stroke="black"/>
<line x1="525" y1="299" x2="525" y2="335" stroke="black"/>
<line x1="225" y1="310" x2="75" y2="318" stroke="black"/>
<polygon fill="black" points="75,318 85,324 85,312"/>
<polygon fill="white" points="125,304 174,304 174,313 125,313"/>
<text x="126" y="313" textLength="47" font-family="Helvetica" font-size="12" fill="black">
STATUS
</text>
<polygon fill="white" points="47,315 252,315 252,324 47,324"/>
<text x="48" y="324" textLength="203" font-family="Helvetica" font-size="12" fill="black">
 SEQ_ID=0, ACK_EOB for SEQ_ID=1
</text>
<line x1="75" y1="335" x2="75" y2="371" stroke="black"/>
<line x1="225" y1="335" x2="225" y2="371" stroke="black"/>
<line x1="375" y1="335" x2="375" y2="371" stroke="black"/>
<line x1="525" y1="335" x2="525" y2="371" stroke="black"/>
<line x1="75" y1="346" x2="186" y2="354" stroke="black"/>
<line x1="182" y1="350" x2="190" y2="358" stroke="black"/>
<line x1="190" y1="350" x2="182" y2="358" stroke="black"/>
<polygon fill="white" points="99,340 199,340 199,349 99,349"/>
<text x="100" y="349" textLength="98" font-family="Helvetica" font-size="12" fill="black">
INT16_COMPLEX
</text>
<polygon fill="white" points="118,351 181,351 181,360 118,360"/>
<text x="119" y="360" textLength="61" font-family="Helvetica" font-size="12" fill="black">
 SEQ_ID=0
</text>
<line x1="75" y1="371" x2="75" y2="407" stroke="black"/>
<line x1="225" y1="371" x2="225" y2="407" stroke="black"/>
<line x1="375" y1="371" x2="375" y2="407" stroke="black"/>
<line x1="525" y1="371" x2="525" y2="407" stroke="black"/>
<line x1="75" y1="382" x2="225" y2="390" stroke="black"/>
<polygon fill="black" points="225,390 215,396 215,384"/>
<polygon fill="white" points="99,376 199,376 199,385 99,385"/>
<text x="100" y="385" textLength="98" font-family="Helvetica" font-size="12" fill="black">
INT16_COMPLEX
</text>
<polygon fill="white" points="118,387 181,387 181,396 118,396"/>
<text x="119" y="396" textLength="61" font-family="Helvetica" font-size="12" fill="black">
 SEQ_ID=1
</text>
<line x1="75" y1="407" x2="75" y2="443" stroke="black"/>
<line x1="225" y1="407" x2="225" y2="443" stroke="black"/>
<line x1="375" y1="407" x2="375" y2="443" stroke="black"/>
<line x1="525" y1="407" x2="525" y2="443" stroke="black"/>
<line x1="225" y1="418" x2="375" y2="426" stroke="black"/>
<polygon fill="black" points="375,426 365,432 365,420"/>
<polygon fill="white" points="249,412 349,412 349,421 249,421"/>
<text x="250" y="421" textLength="98" font-family="Helvetica" font-size="12" fill="black">
INT16_COMPLEX
</text>
<polygon fill="white" points="268,423 331,423 331,432 268,432"/>
<text x="269" y="432" textLength="61" font-family="Helvetica" font-size="12" fill="black">
 SEQ_ID=1
</text>
<line x1="75" y1="443" x2="75" y2="490" stroke="black"/>
<line x1="225" y1="443" x2="225" y2="490" stroke="black"/>
<line x1="375" y1="443" x2="375" y2="490" stroke="black"/>
<line x1="525" y1="443" x2="525" y2="490" stroke="black"/>
<line x1="375" y1="459" x2="225" y2="467" stroke="black"/>
<polygon fill="black" points="225,467 235,473 235,461"/>
<polygon fill="white" points="275,448 324,448 324,457 275,457"/>
<text x="276" y="457" textLength="47" font-family="Helvetica" font-size="12" fill="black">
STATUS
</text>
<polygon fill="white" points="268,459 331,459 331,468 268,468"/>
<text x="269" y="468" textLength="61" font-family="Helvetica" font-size="12" fill="black">
 SEQ_ID=1
</text>
<polygon fill="white" points="220,470 379,470 379,479 220,479"/>
<text x="221" y="479" textLength="157" font-family="Helvetica" font-size="12" fill="black">
 SEQ_ERROR for SEQ_ID=1
</text>
<line x1="75" y1="490" x2="75" y2="537" stroke="black"/>
<line x1="225" y1="490" x2="225" y2="537" stroke="black"/>
<line x1="375" y1="490" x2="375" y2="537" stroke="black"/>
<line x1="525" y1="490" x2="525" y2="537" stroke="black"/>
<line x1="225" y1="506" x2="75" y2="514" stroke="black"/>
<polygon fill="black" points="75,514 85,520 85,508"/>
<polygon fill="white" points="125,495 174,495 174,504 125,504"/>
<text x="126" y="504" textLength="47" font-family="Helvetica" font-size="12" fill="black">
STATUS
</text>
<polygon fill="white" points="118,506 181,506 181,515 118,515"/>
<text x="119" y="515" textLength="61" font-family="Helvetica" font-size="12" fill="black">
 SEQ_ID=1
</text>
<polygon fill="white" points="70,517 229,517 229,526 70,526"/>
<text x="71" y="526" textLength="157" font-family="Helvetica" font-size="12" fill="black">
 SEQ_ERROR for SEQ_ID=1
</text>
<line x1="75" y1="537" x2="75" y2="562" stroke="black"/>
<line x1="225" y1="537" x2="225" y2="562" stroke="black"/>
<line x1="375" y1="537" x2="375" y2="562" stroke="black"/>
<line x1="525" y1="537" x2="525" y2="562" stroke="black"/>
<line x1="75" y1="548" x2="75" y2="570" stroke="black"/>
<line x1="225" y1="548" x2="225" y2="570" stroke="black"/>
<line x1="375" y1="548" x2="375" y2="570" stroke="black"/>
<line x1="525" y1="548" x2="525" y2="570" stroke="black"/>
</svg>
